# MagicaVoxel @ Ephtracy

# material
mtllib Ballesta.mtl
usemtl palette

# normals
vn -1 0 0
vn 1 0 0
vn 0 0 1
vn 0 0 -1
vn 0 -1 0
vn 0 1 0

# texcoords
vt 0.197266 0.5
vt 0.501953 0.5
vt 0.513672 0.5
vt 0.556641 0.5

# verts
v -5 1 3
v -5 1 1
v -5 2 3
v -5 2 1
v -3 1 4
v -3 1 3
v -3 2 4
v -3 2 3
v -2 1 5
v -2 1 4
v -2 2 5
v -2 2 4
v -2 3 5
v -2 3 4
v -1 0 2
v -1 0 1
v -1 1 3
v -1 1 2
v -1 1 1
v -1 1 -5
v -1 2 3
v -1 2 -5
v 1 2 5
v 1 2 4
v 1 3 5
v 1 3 4
v 2 1 3
v 2 1 2
v 2 2 3
v 2 2 2
v 4 1 2
v 4 1 1
v 4 2 2
v 4 2 1
v -4 1 2
v -4 1 1
v -4 2 2
v -4 2 1
v -2 1 3
v -2 1 2
v -2 2 3
v -2 2 2
v -1 2 5
v -1 2 4
v -1 3 5
v -1 3 4
v 1 0 2
v 1 0 1
v 1 1 3
v 1 1 2
v 1 1 1
v 1 1 -5
v 1 2 3
v 1 2 -5
v 2 1 5
v 2 1 4
v 2 2 5
v 2 2 4
v 2 3 5
v 2 3 4
v 3 1 4
v 3 1 3
v 3 2 4
v 3 2 3
v 5 1 3
v 5 1 1
v 5 2 3
v 5 2 1
v -2 1 5
v -2 2 5
v -2 3 5
v -1 2 5
v -1 3 5
v 1 2 5
v 1 3 5
v 2 1 5
v 2 2 5
v 2 3 5
v -3 1 4
v -3 2 4
v -2 1 4
v -2 2 4
v 2 1 4
v 2 2 4
v 3 1 4
v 3 2 4
v -5 1 3
v -5 2 3
v -3 1 3
v -3 2 3
v 3 1 3
v 3 2 3
v 5 1 3
v 5 2 3
v -1 0 2
v -1 1 2
v 1 0 2
v 1 1 2
v -2 2 4
v -2 3 4
v -1 2 4
v -1 3 4
v 1 2 4
v 1 3 4
v 2 2 4
v 2 3 4
v -2 1 3
v -2 2 3
v -1 1 3
v -1 2 3
v 1 1 3
v 1 2 3
v 2 1 3
v 2 2 3
v -4 1 2
v -4 2 2
v -2 1 2
v -2 2 2
v 2 1 2
v 2 2 2
v 4 1 2
v 4 2 2
v -5 1 1
v -5 2 1
v -4 1 1
v -4 2 1
v -1 0 1
v -1 1 1
v 1 0 1
v 1 1 1
v 4 1 1
v 4 2 1
v 5 1 1
v 5 2 1
v -1 1 -5
v -1 2 -5
v 1 1 -5
v 1 2 -5
v -1 0 2
v 1 0 2
v -1 0 1
v 1 0 1
v -2 1 5
v 2 1 5
v -3 1 4
v -2 1 4
v 2 1 4
v 3 1 4
v -5 1 3
v -3 1 3
v -2 1 3
v -1 1 3
v 1 1 3
v 2 1 3
v 3 1 3
v 5 1 3
v -4 1 2
v -2 1 2
v -1 1 2
v 1 1 2
v 2 1 2
v 4 1 2
v -5 1 1
v -4 1 1
v -1 1 1
v 1 1 1
v 4 1 1
v 5 1 1
v -1 1 -5
v 1 1 -5
v -1 2 5
v 1 2 5
v -3 2 4
v -2 2 4
v -1 2 4
v 1 2 4
v 2 2 4
v 3 2 4
v -5 2 3
v -3 2 3
v -2 2 3
v -1 2 3
v 1 2 3
v 2 2 3
v 3 2 3
v 5 2 3
v -4 2 2
v -2 2 2
v 2 2 2
v 4 2 2
v -5 2 1
v -4 2 1
v 4 2 1
v 5 2 1
v -1 2 -5
v 1 2 -5
v -2 3 5
v -1 3 5
v 1 3 5
v 2 3 5
v -2 3 4
v -1 3 4
v 1 3 4
v 2 3 4

# faces
f 3/3/1 2/3/1 1/3/1
f 4/3/1 2/3/1 3/3/1
f 7/3/1 6/3/1 5/3/1
f 8/3/1 6/3/1 7/3/1
f 11/3/1 10/3/1 9/3/1
f 12/3/1 10/3/1 11/3/1
f 13/2/1 12/2/1 11/2/1
f 14/2/1 12/2/1 13/2/1
f 18/4/1 16/4/1 15/4/1
f 19/4/1 16/4/1 18/4/1
f 21/1/1 18/1/1 17/1/1
f 21/1/1 20/1/1 19/1/1
f 21/1/1 19/1/1 18/1/1
f 22/1/1 20/1/1 21/1/1
f 25/2/1 24/2/1 23/2/1
f 26/2/1 24/2/1 25/2/1
f 29/3/1 28/3/1 27/3/1
f 30/3/1 28/3/1 29/3/1
f 33/3/1 32/3/1 31/3/1
f 34/3/1 32/3/1 33/3/1
f 35/3/2 36/3/2 37/3/2
f 37/3/2 36/3/2 38/3/2
f 39/3/2 40/3/2 41/3/2
f 41/3/2 40/3/2 42/3/2
f 43/2/2 44/2/2 45/2/2
f 45/2/2 44/2/2 46/2/2
f 47/4/2 48/4/2 50/4/2
f 50/4/2 48/4/2 51/4/2
f 49/1/2 50/1/2 53/1/2
f 51/1/2 52/1/2 53/1/2
f 50/1/2 51/1/2 53/1/2
f 53/1/2 52/1/2 54/1/2
f 55/3/2 56/3/2 57/3/2
f 57/3/2 56/3/2 58/3/2
f 57/2/2 58/2/2 59/2/2
f 59/2/2 58/2/2 60/2/2
f 61/3/2 62/3/2 63/3/2
f 63/3/2 62/3/2 64/3/2
f 65/3/2 66/3/2 67/3/2
f 67/3/2 66/3/2 68/3/2
f 72/3/3 70/3/3 69/3/3
f 72/2/3 71/2/3 70/2/3
f 73/2/3 71/2/3 72/2/3
f 74/3/3 72/3/3 69/3/3
f 76/3/3 74/3/3 69/3/3
f 77/2/3 75/2/3 74/2/3
f 77/3/3 74/3/3 76/3/3
f 78/2/3 75/2/3 77/2/3
f 81/3/3 80/3/3 79/3/3
f 82/3/3 80/3/3 81/3/3
f 85/3/3 84/3/3 83/3/3
f 86/3/3 84/3/3 85/3/3
f 89/3/3 88/3/3 87/3/3
f 90/3/3 88/3/3 89/3/3
f 93/3/3 92/3/3 91/3/3
f 94/3/3 92/3/3 93/3/3
f 97/4/3 96/4/3 95/4/3
f 98/4/3 96/4/3 97/4/3
f 99/2/4 100/2/4 101/2/4
f 101/2/4 100/2/4 102/2/4
f 103/2/4 104/2/4 105/2/4
f 105/2/4 104/2/4 106/2/4
f 107/3/4 108/3/4 109/3/4
f 109/3/4 108/3/4 110/3/4
f 111/3/4 112/3/4 113/3/4
f 113/3/4 112/3/4 114/3/4
f 115/3/4 116/3/4 117/3/4
f 117/3/4 116/3/4 118/3/4
f 119/3/4 120/3/4 121/3/4
f 121/3/4 120/3/4 122/3/4
f 123/3/4 124/3/4 125/3/4
f 125/3/4 124/3/4 126/3/4
f 127/4/4 128/4/4 129/4/4
f 129/4/4 128/4/4 130/4/4
f 131/3/4 132/3/4 133/3/4
f 133/3/4 132/3/4 134/3/4
f 135/1/4 136/1/4 137/1/4
f 137/1/4 136/1/4 138/1/4
f 141/4/5 140/4/5 139/4/5
f 142/4/5 140/4/5 141/4/5
f 146/3/5 144/3/5 143/3/5
f 147/3/5 144/3/5 146/3/5
f 150/3/5 146/3/5 145/3/5
f 150/3/5 148/3/5 147/3/5
f 150/3/5 147/3/5 146/3/5
f 151/3/5 148/3/5 150/3/5
f 152/3/5 148/3/5 151/3/5
f 153/3/5 148/3/5 152/3/5
f 154/3/5 148/3/5 153/3/5
f 155/3/5 148/3/5 154/3/5
f 157/3/5 150/3/5 149/3/5
f 157/3/5 151/3/5 150/3/5
f 158/3/5 151/3/5 157/3/5
f 159/1/5 153/1/5 152/1/5
f 160/1/5 153/1/5 159/1/5
f 161/3/5 156/3/5 155/3/5
f 161/3/5 155/3/5 154/3/5
f 162/3/5 156/3/5 161/3/5
f 163/3/5 157/3/5 149/3/5
f 164/3/5 157/3/5 163/3/5
f 167/3/5 156/3/5 162/3/5
f 168/3/5 156/3/5 167/3/5
f 169/1/5 166/1/5 165/1/5
f 170/1/5 166/1/5 169/1/5
f 171/3/6 172/3/6 175/3/6
f 175/3/6 172/3/6 176/3/6
f 173/3/6 174/3/6 180/3/6
f 177/3/6 178/3/6 180/3/6
f 176/3/6 177/3/6 180/3/6
f 175/3/6 176/3/6 180/3/6
f 174/3/6 175/3/6 180/3/6
f 180/3/6 178/3/6 181/3/6
f 181/3/6 178/3/6 182/3/6
f 182/3/6 178/3/6 183/3/6
f 183/3/6 178/3/6 184/3/6
f 184/3/6 178/3/6 185/3/6
f 179/3/6 180/3/6 187/3/6
f 180/3/6 181/3/6 187/3/6
f 187/3/6 181/3/6 188/3/6
f 185/3/6 186/3/6 189/3/6
f 184/3/6 185/3/6 189/3/6
f 189/3/6 186/3/6 190/3/6
f 179/3/6 187/3/6 191/3/6
f 191/3/6 187/3/6 192/3/6
f 190/3/6 186/3/6 193/3/6
f 193/3/6 186/3/6 194/3/6
f 182/1/6 183/1/6 195/1/6
f 195/1/6 183/1/6 196/1/6
f 197/2/6 198/2/6 201/2/6
f 201/2/6 198/2/6 202/2/6
f 199/2/6 200/2/6 203/2/6
f 203/2/6 200/2/6 204/2/6
