<?xml version="1.0" encoding="utf-8"?>
<!-- Generator: Adobe Illustrator 21.0.0, SVG Export Plug-In . SVG Version: 6.00 Build 0)  -->
<svg version="1.1" xmlns="http://www.w3.org/2000/svg" xmlns:xlink="http://www.w3.org/1999/xlink" x="0px" y="0px" width="128px"
	 height="128px" viewBox="0 0 128 128" style="enable-background:new 0 0 128 128;" xml:space="preserve">
<style type="text/css">
	.st0{fill:none;stroke:#FFFFFF;stroke-width:5;stroke-miterlimit:10;}
	.st1{display:none;}
	.st2{display:inline;}
	.st3{fill:#999999;}
</style>
<symbol  id="Nuevo_símbolo_1_1_" viewBox="-18.8 -19.4 37.8 41.5">
	<polygon class="st0" points="-1,16.1 15,-16.9 -15,-16.9 	"/>
</symbol>
<g id="Capa_1" class="st1">
	<g class="st2">
		<rect x="0.5" y="0.5" class="st3" width="127" height="127"/>
		<path d="M127,1v126H1V1H127 M128,0H0v128h128V0L128,0z"/>
	</g>
</g>
<g id="Capa_3">
	<g id="Nuevo_símbolo_9_">
		
			<use xlink:href="#Nuevo_símbolo_1_1_"  width="37.8" height="41.5" id="XMLID_29_" x="-18.8" y="-19.4" transform="matrix(0.6613 0 0 -0.9053 102.9418 25.4744)" style="overflow:visible;"/>
		
			<use xlink:href="#Nuevo_símbolo_1_1_"  width="37.8" height="41.5" id="XMLID_1_" x="-18.8" y="-19.4" transform="matrix(-0.6613 0 0 -0.9053 25.0582 25.4744)" style="overflow:visible;"/>
	</g>
	<g id="Nuevo_símbolo">
		<g>
			<polygon class="st0" points="63.7,10 37.7,87 36.7,56 6.7,118 63.7,93 64.5,93 121.5,118 91.5,56 90.5,87 64.5,10 			"/>
			<polyline class="st0" points="46,100.7 64,112.2 82.2,100.8 			"/>
		</g>
		<g id="Nuevo_símbolo_1">
		</g>
	</g>
	<g>
	</g>
	<g>
	</g>
	<g>
	</g>
	<g>
	</g>
	<g>
	</g>
	<g>
	</g>
	<g>
	</g>
	<g>
	</g>
	<g>
	</g>
	<g>
	</g>
	<g>
	</g>
	<g>
	</g>
	<g>
	</g>
	<g>
	</g>
	<g>
	</g>
	<g>
	</g>
	<g>
	</g>
	<g>
	</g>
	<g>
	</g>
</g>
</svg>
